<?xml version="1.0" encoding="UTF-8" standalone="no"?>
<svg width="227px" height="92px" viewBox="0 0 227 92" version="1.1" xmlns="http://www.w3.org/2000/svg" xmlns:xlink="http://www.w3.org/1999/xlink" xmlns:sketch="http://www.bohemiancoding.com/sketch/ns">
    <g id="Page-1" stroke="none" stroke-width="1" fill="none" fill-rule="evenodd" sketch:type="MSPage">
        <path d="M194.487907,89.5094257 C192.9507,87.9724102 192,85.8505468 192,83.5097656 L192,44 L183.072768,44 C185.577265,48.6070537 187,53.8873781 187,59.5 C187,77.4492544 172.449254,92 154.5,92 C139.491665,92 126.859408,81.8268034 123.122818,68 L116,68 L116,83.5097656 C116,88.1987926 112.184868,92 107.5,92 C104.253051,92 101.43132,90.1787676 99.9999181,87.5060182 C95.1635564,90.3615418 89.5231194,92 83.5,92 C73.1626507,92 63.9525351,87.173739 58,79.6515638 C52.0474649,87.173739 42.8373493,92 32.5,92 C14.5507456,92 0,77.4492544 0,59.5 C0,41.5507456 14.5507456,27 32.5,27 C42.8373493,27 52.0474649,31.826261 58,39.3484362 C63.9525351,31.826261 73.1626507,27 83.5,27 C89.1126219,27 94.3929463,28.4227349 99,30.9272318 L99,8.49023438 C99,3.80120741 102.815132,0 107.5,0 C112.19442,0 116,3.80696159 116,8.49023438 L116,51 L123.122818,51 C126.859408,37.1731966 139.491665,27 154.5,27 C155.166471,27 155.828257,27.0200611 156.484786,27.0596124 C156.816197,27.0202481 157.153424,27 157.495329,27 L192,27 L192,8.49023438 C192,3.80120741 195.815132,0 200.5,0 C205.19442,0 209,3.80696159 209,8.49023438 L209,27 L209.504671,27 C214.196512,27 218,30.8151318 218,35.5 C218,40.1944204 214.191976,44 209.504671,44 L209,44 L209,75 L218.505143,75 C223.196723,75 227,78.8151318 227,83.5 C227,88.1944204 223.18776,92 218.505143,92 L200.494857,92 C198.150697,92 196.028304,91.0475419 194.491291,89.5100333 Z M154.5,77 C164.164983,77 172,69.1649831 172,59.5 C172,49.8350169 164.164983,42 154.5,42 C144.835017,42 137,49.8350169 137,59.5 C137,69.1649831 144.835017,77 154.5,77 Z M83.5,77 C93.1649831,77 101,69.1649831 101,59.5 C101,49.8350169 93.1649831,42 83.5,42 C73.8350169,42 66,49.8350169 66,59.5 C66,69.1649831 73.8350169,77 83.5,77 Z M32.5,77 C42.1649831,77 50,69.1649831 50,59.5 C50,49.8350169 42.1649831,42 32.5,42 C22.8350169,42 15,49.8350169 15,59.5 C15,69.1649831 22.8350169,77 32.5,77 Z" id="od-ot" fill="#44486D" sketch:type="MSShapeGroup"></path>
    </g>
</svg>
